<?xml version="1.0" encoding="UTF-8"?>
<svg id="Capa_1" data-name="Capa 1" xmlns="http://www.w3.org/2000/svg" version="1.1" viewBox="0 0 1397.9 259.5">
  <defs>
    <style>
      .cls-1 {
        fill: #fff;
      }

      .cls-1, .cls-2 {
        stroke-width: 0px;
      }

      .cls-2 {
        fill: #ef9b38;
      }
    </style>
  </defs>
  <g id="Capa_1-2" data-name="Capa 1">
    <g>
      <path class="cls-1" d="M0,173.1V4.3h84.4c15.1,30.7,30.2,61.6,41.2,85.3h1.7c-1.2-14.1-1.4-40.7-1.4-68.8V4.3h65.2v168.7h-80.5c-11.8-23.7-35-76.2-45.8-99.2h-1.4c1.9,16.8,2.2,36.2,2.2,75v24.2H0Z"/>
      <path class="cls-1" d="M284.8,149.1l-6,24h-71.9L264.9,4.3h97.1l63.3,168.7h-78.6l-6.5-24h-55.4ZM326.5,103.6c-4.3-18.2-9.1-37.4-13.7-53.2h-1.9c-3.4,15.8-9.1,37.9-12.9,53.2h28.5Z"/>
      <path class="cls-1" d="M510.3,113.4v59.7h-71.7V4.3h116.3c45.8,0,67.4,21.6,67.4,47.9s-11.5,35-29.2,41.5c14.9,6.2,24.5,17.7,24.5,42.9v10.1c0,6.5.5,18,2.6,26.4h-70.7c-2.6-6.5-3.6-18.7-3.6-33.8v-6c0-16.3-4.1-19.9-21.1-19.9h-14.4ZM510.3,74.8h21.1c8.4,0,18-3.1,18-13.9s-7.2-14.1-18.5-14.1h-20.6v28h0Z"/>
      <path class="cls-1" d="M839,110.7c-8.2,46.3-45.1,66.6-99.7,66.6s-101.2-35.7-101.2-89.2S667.6,0,741.4,0s94.2,30.9,98.3,65.7h-74.1c-1.9-12-6.7-23-24-23s-25.9,14.6-25.9,45.3,4.1,44.8,25.9,44.8,22.3-10.1,24.9-22.1h72.4Z"/>
      <path class="cls-1" d="M1065,88.7c0,49.6-32.4,88.7-105.9,88.7s-102.3-38.4-102.3-88.4S885.7,0,962.2,0c62.6,0,102.8,37.1,102.8,88.7ZM934.4,87.5c0,26.4,5.7,45.3,27.3,45.3s25.7-18.9,25.7-43.9-5.5-46.3-26.8-46.3c-19.2,0-26.1,16-26.1,44.8Z"/>
      <path class="cls-1" d="M1084.7,12.9h55.7v15.8h-38.7v52.1h36.5v15.8h-36.5v76.4h-17V12.9Z"/>
      <path class="cls-1" d="M1172.3,12.9v160.1h-17V12.9h17Z"/>
      <path class="cls-1" d="M1196,12.9h17v144.8h40.3l-1.9,15.3h-55.4V12.9Z"/>
      <path class="cls-1" d="M1316.9,95.5h-35.9v61.9h40.8l-2.3,15.7h-55.5V12.9h55v15.8h-38v51.2h35.9v15.7Z"/>
      <path class="cls-1" d="M1348.4,128v9.3c0,15.1,5.2,23.1,16.4,23.1s16-8.3,16-25.8-4.1-26-21-39.2c-17.1-13.4-25.8-21.5-25.8-45.1s6.1-39.7,31.2-39.6c23.8.1,30.1,16,30.1,36.3v7.4h-16.9v-7c0-13.3-2.6-21.9-13.6-21.9s-13.8,9.6-13.8,22.2,3,20.5,17.7,31.6c22.2,16.8,29.3,26.2,29.3,52.7s-6.4,43-33.4,43-33.2-16.9-33.2-38v-9.2h17Z"/>
    </g>
  </g>
  <g id="Capa_2" data-name="Capa 2">
    <g>
      <g>
        <path class="cls-2" d="M266.6,226.5h-13.9v26.6h15.6l-.6,4.1h-19.5v-61.1h19.2v4.1h-14.7v22.1h13.9v4.1h0Z"/>
        <path class="cls-2" d="M274,196.1h4.5v56.9h15.4l-.6,4.1h-19.2v-61.1h0Z"/>
        <path class="cls-2" d="M311.1,257.2v-61.1h5.6l12,41.8c1.4,4.9,2.1,8.5,2.5,10.9h.2c-.3-8.7-.5-17.3-.5-27.1v-25.5h4.4v61.1h-5.4l-13.3-47.5c-.9-3.1-1.3-5.4-1.6-7h0c.4,7.3.6,18.1.6,29.2v25.3h-4.4Z"/>
        <path class="cls-2" d="M348.9,196.1v48.2c0,5.4,2,9.5,7.2,9.5s7.2-3.6,7.2-9.4v-48.3h4.6v48c0,9.3-4.2,13.8-11.9,13.8s-11.6-4.4-11.6-13.6v-48.2h4.5Z"/>
        <path class="cls-2" d="M395.5,226.5h-13.9v26.6h15.6l-.6,4.1h-19.5v-61.1h19.2v4.1h-14.7v22.1h13.9v4.1h0Z"/>
        <path class="cls-2" d="M405.3,196.1l4.6,29.2c1.5,8.7,3.6,20.4,4.1,26.2h0c.5-5.8,2.6-17.5,4-26.1l4.9-29.3h4.8l-10.9,61.1h-5.8l-10.6-61.1h4.8Z"/>
        <path class="cls-2" d="M456.3,210.3v32.4c0,10.1-4,15.3-12.2,15.3s-11.9-6.2-11.9-15.3v-32.3c0-9.5,3.9-15,12.2-15,8.9,0,12,6.7,12,14.9ZM436.8,210.4v32.4c0,8.1,2.9,11.1,7.5,11.1s7.5-3,7.5-11.5v-31.9c0-7.6-2.7-11-7.6-11-5,0-7.4,3.2-7.4,10.9Z"/>
        <path class="cls-2" d="M499.8,210.3v32.4c0,10.1-4,15.3-12.2,15.3s-11.9-6.2-11.9-15.3v-32.3c0-9.5,3.9-15,12.2-15,8.8,0,12,6.7,12,14.9ZM480.3,210.4v32.4c0,8.1,2.9,11.1,7.5,11.1s7.5-3,7.5-11.5v-31.9c0-7.6-2.7-11-7.6-11-5,0-7.4,3.2-7.4,10.9Z"/>
        <path class="cls-2" d="M508.2,196.1h9c9.1,0,13,4.1,13,13.6v3.1c0,7.5-2.3,11.6-6.2,12.9,4,1.3,5.7,4.5,5.7,12.5s0,15,.6,18.9h-4.4c-.7-3.9-.6-14.3-.6-18.5,0-8.2-1.3-10.9-7.7-10.9h-4.9v29.3h-4.5v-61.1ZM512.7,223.9h5.3c6.4,0,7.7-4.4,7.7-10.9v-3.1c0-6.2-1.9-9.9-8.6-9.9h-4.4v23.8h0Z"/>
        <path class="cls-2" d="M538.1,196.1h9.8c13.3,0,14,9.1,14,17.7v24.6c0,9.4-1.4,18.7-14.7,18.7h-9v-61.1h0ZM542.6,253.2h4.2c8.2,0,10.5-4.3,10.5-13.4v-26.7c0-8-1.5-12.9-10.4-12.9h-4.3v53h0Z"/>
        <path class="cls-2" d="M588.7,226.5h-13.9v26.6h15.6l-.6,4.1h-19.5v-61.1h19.2v4.1h-14.7v22.1h13.9v4.1h0Z"/>
        <path class="cls-2" d="M596.1,257.2v-61.1h5.6l12,41.8c1.4,4.9,2.1,8.5,2.5,10.9h.2c-.3-8.7-.5-17.3-.5-27.1v-25.5h4.4v61.1h-5.4l-13.3-47.5c-.9-3.1-1.3-5.4-1.6-7h0c.4,7.3.6,18.1.6,29.2v25.3h-4.4Z"/>
      </g>
      <g>
        <path class="cls-2" d="M721.4,238.2c-2.6,12.8-13.7,21.3-33.4,21.3s-35-13.5-35-31.3,11.3-32.2,36-32.2,30.8,10.5,32.2,21h-20.9c-1-4.4-4-8.4-11.8-8.4s-13.8,8.3-13.8,18.9,2.9,19.3,14,19.3,10.7-5.2,11.6-8.6h21.1Z"/>
        <path class="cls-2" d="M752,235.2v23.1h-20.5v-61.1h35.7c17,0,25.2,7.7,25.2,16.9s-5.8,12.8-10.8,14.5c4.5,1.3,9.4,5.4,9.4,15.8v2.5c0,3.8.1,8.7.9,11.4h-20.1c-1.2-2.6-1.5-7.1-1.5-13.3v-1.6c0-5.3-1.5-8.2-10.8-8.2h-7.4ZM752,222.7h9.8c7,0,9.6-2.5,9.6-6.6s-3-6.5-9.5-6.5h-9.9v13.1Z"/>
        <path class="cls-2" d="M825.1,197.2v61.1h-21.2v-61.1h21.2Z"/>
        <path class="cls-2" d="M900.1,238.4c0-9.5.3-21.9.6-29.1h-.6c-3,13.1-7.9,31.3-13.1,49.1h-16.9c-4.1-17.3-8.9-35.5-11.7-49.1h-.6c.6,7.2,1,19.1,1,29.6v19.5h-18.8v-61.1h30.4c3.5,12.4,7.7,30.3,9.3,39.4h.4c1.9-9.8,6.7-26.1,10.8-39.4h29.5v61.1h-20.3v-19.9Z"/>
        <path class="cls-2" d="M956.4,197.2v61.1h-21.2v-61.1h21.2Z"/>
        <path class="cls-2" d="M971.3,258.3v-61.1h25.2c7.6,13.8,18.5,32.4,21.6,39.9h.3c-.8-6.4-1-17.2-1-26.9v-13h19.2v61.1h-24.1c-6.1-11.1-19.1-34-22.5-42.1h-.3c.7,5.7.7,17.6.7,28.3v13.7h-19.3Z"/>
        <path class="cls-2" d="M1069.8,246.5l-4.2,11.9h-20.6l22.8-61.1h27.3l23.7,61.1h-22l-4.4-11.9h-22.6ZM1088.7,233.2c-3.4-9.6-6.2-18.1-7.8-24.1h-.3c-1.7,6.6-4.4,15.3-7.3,24.1h15.4Z"/>
      </g>
      <polygon class="cls-2" points="1147.6 245.1 1147.6 197.2 1126.4 197.2 1126.4 258.3 1181.5 258.3 1181.5 245.1 1147.6 245.1"/>
    </g>
  </g>
</svg>