<svg width="121" height="23" viewBox="0 0 121 23" fill="none" xmlns="http://www.w3.org/2000/svg">
<g id="Logo_Narco 2">
<g id="Capa_1">
<g id="Group">
<g id="Group_2">
<g id="Group_3">
<path id="Vector" d="M0.446289 15.2967V0.747162H7.72024C9.02267 3.39166 10.3237 6.058 11.2739 8.10452H11.4187C11.3149 6.88535 11.2944 4.59172 11.2944 2.17385V0.747162H16.9151V15.2953H9.97151C8.95851 13.2488 6.95435 8.72435 6.02462 6.73926H5.90039C6.06558 8.18644 6.08606 9.86024 6.08606 13.2078V15.2953H0.446289V15.2967Z" fill="black"/>
<path id="Vector_2" d="M24.9959 13.2297L24.4798 15.2967H18.2803L23.2811 0.748535H31.65L37.1055 15.2967H30.3271L29.7687 13.2297H24.9959ZM28.5919 9.30322C28.2206 7.73318 27.8069 6.07985 27.4137 4.71597H27.2485C26.9591 6.07985 26.4635 7.98166 26.1331 9.30322H28.5919Z" fill="black"/>
<path id="Vector_3" d="M44.4422 10.151V15.2967H38.2632V0.747162H48.2854C52.2322 0.747162 54.0917 2.60664 54.0917 4.87979C54.0917 6.69831 53.0992 7.897 51.5701 8.45539C52.8507 8.9933 53.678 9.98448 53.678 12.1539V13.0222C53.678 13.5806 53.719 14.5717 53.906 15.2953H47.8103C47.5836 14.7369 47.5004 13.683 47.5004 12.3819V11.8658C47.5004 10.461 47.1495 10.151 45.6819 10.151H44.4422ZM44.4422 6.82391H46.2607C46.9843 6.82391 47.8103 6.55496 47.8103 5.62522C47.8103 4.81972 47.1904 4.40605 46.2184 4.40605H44.4409V6.82391H44.4422Z" fill="black"/>
<path id="Vector_4" d="M72.7735 9.92305C72.0704 13.911 68.8881 15.668 64.1767 15.668C58.5765 15.668 55.4556 12.5894 55.4556 7.98029C55.4556 3.9091 57.9976 0.375824 64.3623 0.375824C70.0663 0.375824 72.4841 3.04217 72.835 6.03753H66.4498C66.2846 5.00404 65.8709 4.05382 64.3828 4.05382C62.8742 4.05382 62.1507 5.31395 62.1507 7.95981C62.1507 9.86161 62.5015 11.8249 64.3828 11.8249C65.8504 11.8249 66.3051 10.9565 66.5317 9.92305H72.7735Z" fill="black"/>
<path id="Vector_5" d="M92.2595 8.02259C92.2595 12.2999 89.4703 15.6694 83.1261 15.6694C77.4017 15.6694 74.3026 12.3627 74.3026 8.04444C74.3026 4.01421 76.8023 0.377167 83.395 0.377167C88.7877 0.375802 92.2595 3.57869 92.2595 8.02259ZM80.9977 7.91884C80.9977 10.192 81.4933 11.8248 83.3541 11.8248C85.1726 11.8248 85.5657 10.192 85.5657 8.04307C85.5657 5.43953 85.0906 4.05516 83.2517 4.05516C81.597 4.0538 80.9977 5.43817 80.9977 7.91884Z" fill="black"/>
<path id="Vector_6" d="M93.9633 1.49121H98.7689V2.851H95.4323V7.34542H98.5791V8.70522H95.4323V15.2953H93.9633V1.49121Z" fill="black"/>
<path id="Vector_7" d="M101.508 1.49121V15.2953H100.039V1.49121H101.508Z" fill="black"/>
<path id="Vector_8" d="M103.551 1.49121H105.02V13.9737H108.492L108.328 15.2967H103.551V1.49121Z" fill="black"/>
<path id="Vector_9" d="M113.976 8.61238H110.88V13.9464H114.395L114.196 15.2967H109.411V1.49121H114.152V2.851H110.88V7.26078H113.976V8.61238Z" fill="black"/>
<path id="Vector_10" d="M116.689 11.4098V12.2098C116.689 13.5096 117.138 14.2045 118.106 14.2045C119.094 14.2045 119.485 13.4891 119.485 11.9764C119.485 10.3613 119.13 9.73326 117.676 8.6001C116.199 7.4451 115.449 6.74745 115.449 4.71322C115.449 2.96433 115.974 1.28643 118.139 1.29736C120.193 1.30828 120.737 2.67626 120.737 4.42925V5.06955H119.277V4.46884C119.277 3.32339 119.053 2.58206 118.109 2.58206C117.161 2.58206 116.918 3.41213 116.918 4.49478C116.918 5.77812 117.174 6.26415 118.44 7.22256C120.357 8.6711 120.963 9.47933 120.963 11.7702C120.963 13.7103 120.409 15.4783 118.08 15.4783C115.852 15.4783 115.221 14.0188 115.221 12.2003V11.4071H116.689V11.4098Z" fill="black"/>
</g>
</g>
</g>
</g>
<g id="Capa_2">
<g id="Group_4">
<g id="Group_5">
<g id="Group_6">
<path id="Vector_11" d="M23.4341 19.9017H22.2368V22.1953H23.5842L23.5296 22.5503H21.8518V17.2859H23.5064V17.6408H22.2381V19.5481H23.4354V19.9017H23.4341Z" fill="black"/>
<path id="Vector_12" d="M24.0716 17.2859H24.458V22.1953H25.7823L25.7277 22.5503H24.073V17.2859H24.0716Z" fill="black"/>
<path id="Vector_13" d="M27.2635 22.5503V17.2859H27.7441L28.7762 20.8874C28.895 21.3134 28.9578 21.6205 28.9892 21.8253H29.0056C28.9824 21.0772 28.966 20.3358 28.966 19.4853V17.2872H29.3441V22.5516H28.8786L27.7277 18.4545C27.6485 18.1869 27.6171 17.989 27.5939 17.8552H27.5857C27.6171 18.4859 27.6403 19.4157 27.6403 20.3686V22.5516H27.2635V22.5503Z" fill="black"/>
<path id="Vector_14" d="M30.5264 17.2859V21.439C30.5264 21.9045 30.6998 22.2581 31.149 22.2581C31.6063 22.2581 31.7715 21.9509 31.7715 21.4472V17.2859H32.1661V21.4226C32.1661 22.2267 31.8029 22.6131 31.1422 22.6131C30.4882 22.6131 30.1414 22.2349 30.1414 21.439V17.2859H30.5264Z" fill="black"/>
<path id="Vector_15" d="M34.5457 19.9017H33.3484V22.1953H34.6959L34.6412 22.5503H32.9634V17.2859H34.618V17.6408H33.3497V19.5481H34.547V19.9017H34.5457Z" fill="black"/>
<path id="Vector_16" d="M35.388 17.2859L35.7826 19.7993C35.9082 20.5475 36.0898 21.5564 36.1375 22.0615H36.1457C36.1853 21.5646 36.3737 20.557 36.4925 19.8157L36.9185 17.2859H37.328L36.3901 22.5503H35.8863L34.9716 17.2859H35.388Z" fill="black"/>
<path id="Vector_17" d="M39.7854 18.5077V21.297C39.7854 22.1639 39.4387 22.6131 38.7301 22.6131C37.9424 22.6131 37.7062 22.0779 37.7062 21.297V18.5146C37.7062 17.6954 38.0448 17.2217 38.7547 17.2217C39.5179 17.223 39.7854 17.7978 39.7854 18.5077ZM38.0994 18.5146V21.3038C38.0994 22.0055 38.3519 22.2649 38.7451 22.2649C39.1629 22.2649 39.3909 22.0055 39.3909 21.2724V18.5228C39.3909 17.8688 39.1547 17.5766 38.7369 17.5766C38.3042 17.578 38.0994 17.8538 38.0994 18.5146Z" fill="black"/>
<path id="Vector_18" d="M43.5371 18.5077V21.297C43.5371 22.1639 43.1903 22.6131 42.4818 22.6131C41.694 22.6131 41.4579 22.0779 41.4579 21.297V18.5146C41.4579 17.6954 41.7964 17.2217 42.5064 17.2217C43.2682 17.223 43.5371 17.7978 43.5371 18.5077ZM41.8497 18.5146V21.3038C41.8497 22.0055 42.1022 22.2649 42.4954 22.2649C42.9132 22.2649 43.1412 22.0055 43.1412 21.2724V18.5228C43.1412 17.8688 42.905 17.5766 42.4872 17.5766C42.0545 17.578 41.8497 17.8538 41.8497 18.5146Z" fill="black"/>
<path id="Vector_19" d="M44.262 17.2859H45.0416C45.8293 17.2859 46.1611 17.6408 46.1611 18.46V18.7276C46.1611 19.3733 45.9645 19.7283 45.6259 19.8389C45.9727 19.9495 46.1147 20.2253 46.1147 20.9188C46.1147 21.3762 46.1065 22.2117 46.1693 22.5503H45.7911C45.7283 22.2117 45.7365 21.3134 45.7365 20.9584C45.7365 20.2498 45.6259 20.0205 45.0743 20.0205H44.6484V22.5503H44.262V17.2859ZM44.6484 19.6819H45.1057C45.6573 19.6819 45.7679 19.3037 45.7679 18.7439V18.4764C45.7679 17.9412 45.6027 17.6258 45.0266 17.6258H44.6484V19.6819Z" fill="black"/>
<path id="Vector_20" d="M46.8382 17.2859H47.6819C48.8328 17.2859 48.8874 18.0736 48.8874 18.8149V20.9352C48.8874 21.7461 48.7687 22.5503 47.6191 22.5503H46.8396V17.2859H46.8382ZM47.2246 22.2035H47.5877C48.2963 22.2035 48.4942 21.8335 48.4942 21.0458V18.7439C48.4942 18.0504 48.3686 17.6326 47.5959 17.6326H47.226V22.2035H47.2246Z" fill="black"/>
<path id="Vector_21" d="M51.196 19.9017H49.9987V22.1953H51.3462L51.2916 22.5503H49.6137V17.2859H51.2684V17.6408H50.0001V19.5481H51.1974V19.9017H51.196Z" fill="black"/>
<path id="Vector_22" d="M51.835 22.5503V17.2859H52.3155L53.3476 20.8874C53.4664 21.3134 53.5292 21.6205 53.5606 21.8253H53.577C53.5538 21.0772 53.5374 20.3358 53.5374 19.4853V17.2872H53.9156V22.5516H53.45L52.2992 18.4545C52.22 18.1869 52.1886 17.989 52.1654 17.8552H52.1572C52.1886 18.4859 52.2118 19.4157 52.2118 20.3686V22.5516H51.835V22.5503Z" fill="black"/>
</g>
</g>
<g id="Group_7">
<path id="Vector_23" d="M62.6408 20.9147C62.4128 22.0165 61.4612 22.7469 59.7574 22.7469C57.7246 22.7469 56.7416 21.5809 56.7416 20.0519C56.7416 18.5596 57.7123 17.279 59.8448 17.279C61.6687 17.279 62.5002 18.1801 62.6217 19.0921H60.8168C60.7336 18.7112 60.4755 18.3644 59.8025 18.3644C58.9178 18.3644 58.6161 19.0771 58.6161 19.9972C58.6161 20.8328 58.8673 21.6588 59.8216 21.6588C60.5452 21.6588 60.7472 21.2123 60.825 20.9147H62.6408Z" fill="black"/>
<path id="Vector_24" d="M65.2757 20.6567V22.6486H63.5091V17.3773H66.5849C68.0471 17.3773 68.7543 18.0422 68.7543 18.8368C68.7543 19.5645 68.2532 19.9372 67.8218 20.0873C68.2137 20.2034 68.6314 20.5556 68.6314 21.4471V21.6669C68.6314 21.9946 68.6437 22.4206 68.712 22.6486H66.9781C66.873 22.4219 66.8457 22.0397 66.8457 21.4977V21.3611C66.8457 20.9065 66.7174 20.6567 65.9146 20.6567H65.2757ZM65.2757 19.5795H66.1167C66.7228 19.5795 66.944 19.3651 66.944 19.0115C66.944 18.6593 66.6819 18.4531 66.1262 18.4531H65.2757V19.5795Z" fill="black"/>
<path id="Vector_25" d="M71.5803 17.3773V22.6486H69.7564V17.3773H71.5803Z" fill="black"/>
<path id="Vector_26" d="M78.0488 20.9284C78.0488 20.1051 78.0706 19.0429 78.0966 18.4163H78.0488C77.7894 19.5467 77.3716 21.1127 76.917 22.6472H75.4603C75.104 21.1577 74.6958 19.589 74.4541 18.4163H74.3995C74.45 19.0361 74.4842 20.0655 74.4842 20.968V22.6459H72.865V17.3746H75.4835C75.7893 18.4409 76.147 19.9877 76.2863 20.7673H76.3177C76.4774 19.9194 76.8911 18.5214 77.2529 17.3746H79.7963V22.6459H78.0488V20.9284Z" fill="black"/>
<path id="Vector_27" d="M82.9008 17.3773V22.6486H81.0769V17.3773H82.9008Z" fill="black"/>
<path id="Vector_28" d="M84.1855 22.6486V17.3773H86.3617C87.0143 18.5651 87.9604 20.1693 88.2211 20.8178H88.2512C88.1815 20.2703 88.1665 19.3392 88.1665 18.4982V17.3773H89.8239V22.6486H87.7501C87.2231 21.6943 86.1009 19.716 85.8088 19.0211H85.7842C85.8415 19.5167 85.847 20.5379 85.847 21.4649V22.6486H84.1855Z" fill="black"/>
<path id="Vector_29" d="M92.6772 21.6233L92.3182 22.6486H90.5461L92.5079 17.3773H94.863L96.9026 22.6486H95.0036L94.6268 21.6233H92.6772ZM94.306 20.4778C94.0138 19.6491 93.7749 18.9132 93.6356 18.3985H93.6111C93.4677 18.9665 93.2302 19.7187 92.979 20.4778H94.306Z" fill="black"/>
</g>
<g id="Group_8">
<path id="Vector_30" d="M99.3778 21.5031V17.3773H97.5538V22.6486H102.303V21.5031H99.3778Z" fill="black"/>
</g>
</g>
</g>
</g>
</svg>
